<svg width="1000" height="1000" viewBox="0 0 1000 1000" fill="none" xmlns="http://www.w3.org/2000/svg">
<rect width="1000" height="1000" fill="white"/>
<rect x="422" y="635" width="174" height="59" fill="black"/>
<path d="M703.5 505C700.457 559.271 693.413 583.853 668.349 614C621.818 629.332 585.394 632.393 509.5 632C441.378 631.773 405.42 628.976 349.651 614C324.522 582.688 315.868 558.735 310 505H703.5Z" fill="#1C7D88"/>
<path d="M310 500C313.047 445.315 320.099 420.547 345.196 390.169C391.785 374.72 430.51 358.104 506.5 358.5C574.709 358.729 613.161 375.08 669 390.169C694.162 421.72 698.124 445.856 704 500H310Z" fill="#4D38AA"/>
<path d="M292.5 238.5C461.882 162.772 555.906 164.867 722 243L672 383C538.258 335.878 466.814 335.918 346 383L292.5 238.5Z" fill="#520062"/>
<path d="M728.5 246C808.75 314.403 840.176 366.647 857 500C839.159 643.625 809.107 696.365 728.5 753L675.5 614C720.231 525.779 718.27 475.584 675.5 385L728.5 246Z" fill="#520062"/>
<path d="M728.5 246C808.75 314.403 840.176 366.647 857 500C839.159 643.625 809.107 696.365 728.5 753L675.5 614C720.231 525.779 718.27 475.584 675.5 385L728.5 246Z" fill="#520062"/>
<path d="M283.5 753C203.25 684.597 171.824 632.353 155 499C172.841 355.375 202.893 302.635 283.5 246L336.5 385C291.769 473.221 293.73 523.416 336.5 614L283.5 753Z" fill="#520062"/>
<path d="M283.5 753C203.25 684.597 171.824 632.353 155 499C172.841 355.375 202.893 302.635 283.5 246L336.5 385C291.769 473.221 293.73 523.416 336.5 614L283.5 753Z" fill="#520062"/>
<text fill="#FFFEFE" style="white-space: pre" xml:space="preserve" font-family="Inter" font-size="19" font-weight="bold" letter-spacing="0em"><tspan x="453.577" y="671.909">ESCENARIO</tspan></text>
</svg>
