<svg width="1016" height="872" viewBox="0 0 1016 872" fill="none" xmlns="http://www.w3.org/2000/svg">
<rect width="1016" height="872" fill="white"/>
<rect x="421" y="410" width="169" height="92" fill="#7B708C"/>
<path d="M332.5 359.5C273.804 480.754 273.948 552.19 334.5 694L284.5 719.5C221.285 575.715 220 486 292 329.5L332.5 359.5Z" fill="#D50700"/>
<path d="M718 321L670.5 349C549.66 225.518 459.294 229.941 336.5 348L296.5 321C425.682 156.882 582.995 157.935 718 321Z" fill="#D50700"/>
<path d="M721.5 330.5C787.139 483.218 783.897 569.766 719 720.5L675 691.5C727.697 564.19 729.369 491.779 675 360.5L721.5 330.5Z" fill="#D50700"/>
<path d="M370 383.5C320.496 495.462 323.55 558.917 370 673L336.42 693C280.772 563.681 277.724 489.199 336.42 362L370 383.5Z" fill="#7B708C"/>
<path d="M666.5 351.951L632.5 375C552.535 280.185 464.391 280.162 375.5 373.039L340 349.009C460.102 230.707 551.216 227.231 666.5 351.951Z" fill="#7B708C"/>
<path d="M417 416V645.5L373 670.5C326.351 559.591 325.046 497.41 373 386.5L417 416Z" fill="#FF0505"/>
<path d="M630 377L590 405H419.5L377.5 376C469.713 279.486 548.514 284.168 630 377Z" fill="#FF0909"/>
<path d="M637.679 382.5L672.32 362C726.363 499.927 724.694 571.073 672.32 690L637.679 669.5C687.347 555.381 687.64 492.522 637.679 382.5Z" fill="#7B708C"/>
<path d="M593.5 413L635 385C683.124 491.961 683.678 553.778 635 667.5L593.5 642.5V413Z" fill="#FF0909"/>
<rect x="426" y="604" width="159" height="35" fill="black"/>
<rect x="421" y="508" width="169" height="89" fill="#7B708C"/>
</svg>
