<svg width="1000" height="1000" viewBox="0 0 1000 1000" fill="none" xmlns="http://www.w3.org/2000/svg">
<rect width="1000" height="1000" fill="white"/>
<path d="M382.5 637H629.5V706H382.5V637Z" fill="black"/>
<path d="M249 414H771V608H249V414Z" fill="#50DF43"/>
<path d="M789.5 480.5H923V622.5H789.5V480.5Z" fill="#3D41FF"/>
<path d="M876.5 291L921.54 337.5V471.5H788V418.5L763.5 397H677.5V291H876.5Z" fill="#1417D2"/>
<path d="M347.5 280H671V397H347.5V280Z" fill="#400C99"/>
<path d="M95 340.5L154.5 291H341V397H254L227 422V469.5H95V340.5Z" fill="#1417D2"/>
<rect x="95" y="481" width="132" height="142" fill="#3D41FF"/>
<rect x="702" y="614" width="69" height="23" fill="#400C99"/>
<path d="M425.594 683V662.636H439.316V666.186H429.9V671.038H438.61V674.588H429.9V679.45H439.355V683H425.594Z" fill="#FFFEFE"/>
<path d="M453.786 668.493C453.706 667.691 453.365 667.068 452.761 666.624C452.158 666.179 451.339 665.957 450.305 665.957C449.603 665.957 449.009 666.057 448.526 666.256C448.042 666.448 447.67 666.716 447.412 667.061C447.16 667.406 447.034 667.797 447.034 668.234C447.021 668.599 447.097 668.917 447.263 669.189C447.435 669.461 447.67 669.696 447.969 669.895C448.267 670.087 448.612 670.256 449.003 670.402C449.394 670.541 449.812 670.66 450.256 670.76L452.085 671.197C452.973 671.396 453.789 671.661 454.531 671.993C455.274 672.324 455.917 672.732 456.46 673.216C457.004 673.7 457.425 674.27 457.723 674.926C458.028 675.582 458.184 676.335 458.19 677.183C458.184 678.429 457.866 679.51 457.236 680.425C456.613 681.333 455.711 682.039 454.531 682.543C453.358 683.04 451.943 683.288 450.286 683.288C448.642 683.288 447.21 683.036 445.99 682.533C444.777 682.029 443.829 681.283 443.146 680.295C442.47 679.301 442.116 678.071 442.082 676.606H446.249C446.295 677.289 446.491 677.859 446.835 678.317C447.187 678.767 447.654 679.109 448.237 679.341C448.827 679.566 449.493 679.679 450.236 679.679C450.965 679.679 451.598 679.573 452.135 679.361C452.679 679.149 453.099 678.854 453.398 678.476C453.696 678.098 453.845 677.664 453.845 677.173C453.845 676.716 453.709 676.331 453.438 676.02C453.172 675.708 452.781 675.443 452.264 675.224C451.754 675.006 451.127 674.807 450.385 674.628L448.168 674.071C446.451 673.653 445.095 673 444.101 672.112C443.107 671.224 442.613 670.027 442.619 668.523C442.613 667.29 442.941 666.213 443.604 665.291C444.273 664.37 445.191 663.651 446.358 663.133C447.525 662.616 448.85 662.358 450.335 662.358C451.847 662.358 453.166 662.616 454.293 663.133C455.426 663.651 456.308 664.37 456.938 665.291C457.567 666.213 457.892 667.28 457.912 668.493H453.786Z" fill="#FFFEFE"/>
<path d="M479.054 669.766H474.699C474.619 669.202 474.457 668.702 474.211 668.264C473.966 667.82 473.651 667.442 473.267 667.131C472.882 666.819 472.438 666.58 471.934 666.415C471.437 666.249 470.897 666.166 470.314 666.166C469.26 666.166 468.342 666.428 467.559 666.952C466.777 667.469 466.171 668.224 465.74 669.219C465.309 670.206 465.093 671.406 465.093 672.818C465.093 674.27 465.309 675.49 465.74 676.477C466.177 677.465 466.787 678.211 467.569 678.714C468.351 679.218 469.256 679.47 470.284 679.47C470.86 679.47 471.394 679.394 471.885 679.241C472.382 679.089 472.823 678.867 473.207 678.575C473.592 678.277 473.91 677.916 474.162 677.491C474.42 677.067 474.599 676.583 474.699 676.04L479.054 676.06C478.941 676.994 478.659 677.896 478.208 678.764C477.764 679.626 477.164 680.398 476.409 681.081C475.66 681.757 474.765 682.294 473.724 682.692C472.69 683.083 471.52 683.278 470.214 683.278C468.398 683.278 466.774 682.867 465.342 682.045C463.917 681.223 462.79 680.034 461.961 678.476C461.139 676.918 460.728 675.032 460.728 672.818C460.728 670.597 461.146 668.708 461.981 667.151C462.816 665.593 463.95 664.406 465.382 663.591C466.814 662.769 468.424 662.358 470.214 662.358C471.394 662.358 472.488 662.524 473.495 662.855C474.51 663.187 475.408 663.67 476.19 664.307C476.972 664.937 477.609 665.709 478.099 666.624C478.596 667.538 478.914 668.586 479.054 669.766Z" fill="#FFFEFE"/>
<path d="M482.141 683V662.636H495.863V666.186H486.446V671.038H495.157V674.588H486.446V679.45H495.902V683H482.141Z" fill="#FFFEFE"/>
<path d="M516.318 662.636V683H512.599L503.74 670.183H503.591V683H499.286V662.636H503.064L511.854 675.443H512.033V662.636H516.318Z" fill="#FFFEFE"/>
<path d="M523.385 683H518.772L525.802 662.636H531.35L538.37 683H533.756L528.655 667.29H528.496L523.385 683ZM523.097 674.996H533.995V678.356H523.097V674.996Z" fill="#FFFEFE"/>
<path d="M540.821 683V662.636H548.855C550.393 662.636 551.705 662.911 552.792 663.462C553.886 664.005 554.718 664.777 555.288 665.778C555.865 666.773 556.153 667.943 556.153 669.288C556.153 670.641 555.861 671.804 555.278 672.778C554.695 673.746 553.85 674.489 552.743 675.006C551.642 675.523 550.31 675.781 548.745 675.781H543.366V672.321H548.049C548.871 672.321 549.554 672.208 550.098 671.983C550.641 671.758 551.046 671.419 551.311 670.969C551.583 670.518 551.718 669.958 551.718 669.288C551.718 668.612 551.583 668.042 551.311 667.578C551.046 667.114 550.638 666.763 550.088 666.524C549.544 666.279 548.858 666.156 548.029 666.156H545.126V683H540.821ZM551.818 673.733L556.879 683H552.126L547.174 673.733H551.818Z" fill="#FFFEFE"/>
<path d="M563.501 662.636V683H559.196V662.636H563.501Z" fill="#FFFEFE"/>
<path d="M585.756 672.818C585.756 675.039 585.335 676.928 584.494 678.486C583.658 680.044 582.518 681.233 581.073 682.055C579.635 682.871 578.017 683.278 576.221 683.278C574.411 683.278 572.787 682.867 571.349 682.045C569.91 681.223 568.773 680.034 567.938 678.476C567.103 676.918 566.685 675.032 566.685 672.818C566.685 670.597 567.103 668.708 567.938 667.151C568.773 665.593 569.91 664.406 571.349 663.591C572.787 662.769 574.411 662.358 576.221 662.358C578.017 662.358 579.635 662.769 581.073 663.591C582.518 664.406 583.658 665.593 584.494 667.151C585.335 668.708 585.756 670.597 585.756 672.818ZM581.391 672.818C581.391 671.38 581.176 670.167 580.745 669.179C580.321 668.191 579.721 667.442 578.945 666.932C578.17 666.421 577.262 666.166 576.221 666.166C575.18 666.166 574.272 666.421 573.496 666.932C572.721 667.442 572.118 668.191 571.687 669.179C571.263 670.167 571.05 671.38 571.05 672.818C571.05 674.257 571.263 675.47 571.687 676.457C572.118 677.445 572.721 678.194 573.496 678.705C574.272 679.215 575.18 679.47 576.221 679.47C577.262 679.47 578.17 679.215 578.945 678.705C579.721 678.194 580.321 677.445 580.745 676.457C581.176 675.47 581.391 674.257 581.391 672.818Z" fill="#FFFEFE"/>
</svg>
