<svg width="1000" height="1000" viewBox="0 0 1000 1000" fill="none" xmlns="http://www.w3.org/2000/svg">
<rect width="1000" height="1000" fill="white"/>
<rect x="384" y="662" width="231" height="76" fill="#2056A7"/>
<rect x="384" y="491" width="231" height="165" fill="#2056A7"/>
<rect x="384" y="391" width="231" height="92" fill="#2056A7"/>
<path d="M629.5 263.5L596 358.25H397.5L357 263.5H629.5Z" fill="#29B92E"/>
<path d="M666.5 195L643.5 259H351.5L325 195H666.5Z" fill="#B331C7"/>
<path d="M714 347.5L624 387.5L601 369L643.5 270L714 347.5Z" fill="#29B92E"/>
<path d="M677.5 202.5L790 316L737.5 347L646.5 263.5L677.5 202.5Z" fill="#B331C7"/>
<path d="M345.5 268.5L394 365.5L370 393L269 345.5L345.5 268.5Z" fill="#29B92E"/>
<path d="M312.5 202.5L345.5 263.5L263.5 344.5L202.5 315L312.5 202.5Z" fill="#B331C7"/>
<path d="M630.95 398.5L723.5 357V715L630.95 750.5V398.5Z" fill="#29B92E"/>
<path d="M735 355.5L795.5 322.5V701L735 728.5V355.5Z" fill="#B331C7"/>
<path d="M270.5 355.5L366.5 401V747.5L270.5 718.5V355.5Z" fill="#29B92E"/>
<path d="M197.5 323L257 350V729.5L197.5 699.5V323Z" fill="#B331C7"/>
<rect x="415" y="753" width="169" height="56" fill="black"/>
<path d="M430.859 793.223V775.768H442.62V778.811H434.549V782.97H442.015V786.013H434.549V790.18H442.654V793.223H430.859Z" fill="#FFFAFA"/>
<path d="M455.023 780.788C454.955 780.101 454.662 779.567 454.145 779.186C453.628 778.805 452.926 778.615 452.04 778.615C451.438 778.615 450.929 778.7 450.515 778.871C450.1 779.036 449.782 779.266 449.56 779.561C449.344 779.857 449.236 780.192 449.236 780.567C449.225 780.879 449.29 781.152 449.432 781.385C449.58 781.618 449.782 781.82 450.037 781.99C450.293 782.155 450.588 782.3 450.924 782.425C451.259 782.544 451.617 782.646 451.998 782.732L453.566 783.107C454.327 783.277 455.026 783.504 455.662 783.788C456.299 784.072 456.85 784.422 457.316 784.837C457.782 785.251 458.142 785.74 458.398 786.303C458.659 786.865 458.793 787.51 458.799 788.237C458.793 789.305 458.52 790.232 457.98 791.016C457.446 791.794 456.674 792.399 455.662 792.831C454.657 793.257 453.444 793.47 452.023 793.47C450.614 793.47 449.387 793.254 448.341 792.822C447.301 792.391 446.489 791.751 445.904 790.905C445.324 790.053 445.02 788.999 444.992 787.743H448.563C448.603 788.328 448.77 788.817 449.066 789.209C449.367 789.595 449.767 789.888 450.267 790.087C450.773 790.28 451.344 790.376 451.98 790.376C452.605 790.376 453.148 790.286 453.608 790.104C454.074 789.922 454.435 789.669 454.691 789.345C454.946 789.021 455.074 788.649 455.074 788.229C455.074 787.837 454.958 787.507 454.725 787.24C454.498 786.973 454.162 786.746 453.719 786.558C453.282 786.371 452.745 786.2 452.108 786.047L450.208 785.57C448.736 785.212 447.574 784.652 446.722 783.891C445.87 783.129 445.446 782.104 445.452 780.814C445.446 779.757 445.728 778.834 446.296 778.044C446.87 777.254 447.657 776.638 448.657 776.195C449.657 775.751 450.793 775.53 452.066 775.53C453.361 775.53 454.492 775.751 455.458 776.195C456.429 776.638 457.185 777.254 457.725 778.044C458.265 778.834 458.543 779.749 458.56 780.788H455.023Z" fill="#FFFAFA"/>
<path d="M476.681 781.879H472.948C472.88 781.396 472.741 780.967 472.531 780.592C472.321 780.212 472.051 779.888 471.721 779.621C471.392 779.354 471.011 779.149 470.579 779.007C470.153 778.865 469.69 778.794 469.19 778.794C468.287 778.794 467.5 779.018 466.829 779.467C466.159 779.911 465.639 780.558 465.27 781.411C464.9 782.257 464.716 783.286 464.716 784.496C464.716 785.74 464.9 786.786 465.27 787.632C465.645 788.479 466.167 789.118 466.838 789.55C467.508 789.982 468.284 790.197 469.164 790.197C469.659 790.197 470.116 790.132 470.537 790.001C470.963 789.871 471.341 789.68 471.67 789.43C472 789.175 472.272 788.865 472.488 788.501C472.71 788.138 472.863 787.723 472.948 787.257L476.681 787.274C476.585 788.075 476.343 788.848 475.957 789.592C475.576 790.331 475.062 790.993 474.414 791.578C473.772 792.158 473.005 792.618 472.113 792.959C471.227 793.294 470.224 793.462 469.105 793.462C467.548 793.462 466.156 793.109 464.929 792.405C463.707 791.7 462.741 790.68 462.031 789.345C461.326 788.01 460.974 786.393 460.974 784.496C460.974 782.592 461.332 780.973 462.048 779.638C462.764 778.303 463.735 777.286 464.963 776.587C466.19 775.882 467.571 775.53 469.105 775.53C470.116 775.53 471.054 775.672 471.917 775.956C472.787 776.24 473.556 776.655 474.227 777.2C474.897 777.74 475.443 778.402 475.863 779.186C476.289 779.97 476.562 780.868 476.681 781.879Z" fill="#FFFAFA"/>
<path d="M479.328 793.223V775.768H491.089V778.811H483.018V782.97H490.484V786.013H483.018V790.18H491.123V793.223H479.328Z" fill="#FFFAFA"/>
<path d="M508.623 775.768V793.223H505.435L497.841 782.237H497.713V793.223H494.023V775.768H497.262L504.796 786.746H504.949V775.768H508.623Z" fill="#FFFAFA"/>
<path d="M514.68 793.223H510.725L516.751 775.768H521.507L527.524 793.223H523.569L519.197 779.757H519.061L514.68 793.223ZM514.433 786.362H523.774V789.243H514.433V786.362Z" fill="#FFFAFA"/>
<path d="M529.625 793.223V775.768H536.511C537.829 775.768 538.954 776.004 539.886 776.476C540.824 776.942 541.537 777.604 542.025 778.462C542.52 779.314 542.767 780.317 542.767 781.47C542.767 782.629 542.517 783.626 542.017 784.462C541.517 785.291 540.792 785.928 539.843 786.371C538.9 786.814 537.758 787.036 536.417 787.036H531.806V784.07H535.821C536.525 784.07 537.11 783.973 537.576 783.78C538.042 783.587 538.389 783.297 538.616 782.911C538.849 782.524 538.966 782.044 538.966 781.47C538.966 780.891 538.849 780.402 538.616 780.004C538.389 779.607 538.039 779.305 537.568 779.101C537.102 778.891 536.514 778.786 535.804 778.786H533.315V793.223H529.625ZM539.051 785.28L543.389 793.223H539.315L535.071 785.28H539.051Z" fill="#FFFAFA"/>
<path d="M549.065 775.768V793.223H545.375V775.768H549.065Z" fill="#FFFAFA"/>
<path d="M568.141 784.496C568.141 786.399 567.78 788.018 567.059 789.354C566.343 790.689 565.365 791.709 564.127 792.413C562.894 793.112 561.507 793.462 559.968 793.462C558.417 793.462 557.024 793.109 555.792 792.405C554.559 791.7 553.584 790.68 552.868 789.345C552.152 788.01 551.794 786.393 551.794 784.496C551.794 782.592 552.152 780.973 552.868 779.638C553.584 778.303 554.559 777.286 555.792 776.587C557.024 775.882 558.417 775.53 559.968 775.53C561.507 775.53 562.894 775.882 564.127 776.587C565.365 777.286 566.343 778.303 567.059 779.638C567.78 780.973 568.141 782.592 568.141 784.496ZM564.399 784.496C564.399 783.263 564.215 782.223 563.846 781.376C563.482 780.53 562.968 779.888 562.303 779.45C561.638 779.013 560.86 778.794 559.968 778.794C559.076 778.794 558.297 779.013 557.632 779.45C556.968 779.888 556.451 780.53 556.081 781.376C555.718 782.223 555.536 783.263 555.536 784.496C555.536 785.729 555.718 786.768 556.081 787.615C556.451 788.462 556.968 789.104 557.632 789.541C558.297 789.979 559.076 790.197 559.968 790.197C560.86 790.197 561.638 789.979 562.303 789.541C562.968 789.104 563.482 788.462 563.846 787.615C564.215 786.768 564.399 785.729 564.399 784.496Z" fill="#FFFAFA"/>
</svg>
