<svg width="1000" height="1000" viewBox="0 0 1000 1000" fill="none" xmlns="http://www.w3.org/2000/svg">
<rect width="1000" height="1000" fill="white"/>
<rect x="422" y="635" width="174" height="59" fill="black"/>
<path d="M703.5 505C700.457 559.271 693.413 583.853 668.349 614C621.818 629.332 585.394 632.393 509.5 632C441.378 631.773 405.42 628.976 349.651 614C324.522 582.688 315.868 558.735 310 505H703.5Z" fill="#1C7D88"/>
<path d="M310 500C313.047 445.315 320.099 420.547 345.196 390.169C391.785 374.72 430.51 358.104 506.5 358.5C574.709 358.729 613.161 375.08 669 390.169C694.162 421.72 698.124 445.856 704 500H310Z" fill="#4D38AA"/>
<path d="M292.5 238.5C461.882 162.772 555.906 164.867 722 243L672 383C538.258 335.878 466.814 335.918 346 383L292.5 238.5Z" fill="#520062"/>
<path d="M728.5 246C808.75 314.403 840.176 366.647 857 500C839.159 643.625 809.107 696.365 728.5 753L675.5 614C720.231 525.779 718.27 475.584 675.5 385L728.5 246Z" fill="#520062"/>
<path d="M728.5 246C808.75 314.403 840.176 366.647 857 500C839.159 643.625 809.107 696.365 728.5 753L675.5 614C720.231 525.779 718.27 475.584 675.5 385L728.5 246Z" fill="#520062"/>
<path d="M283.5 753C203.25 684.597 171.824 632.353 155 499C172.841 355.375 202.893 302.635 283.5 246L336.5 385C291.769 473.221 293.73 523.416 336.5 614L283.5 753Z" fill="#520062"/>
<path d="M283.5 753C203.25 684.597 171.824 632.353 155 499C172.841 355.375 202.893 302.635 283.5 246L336.5 385C291.769 473.221 293.73 523.416 336.5 614L283.5 753Z" fill="#520062"/>
<path d="M457.632 671V657.909H466.453V660.191H460.4V663.31H465.999V665.592H460.4V668.718H466.479V671H457.632Z" fill="white"/>
<path d="M475.755 661.674C475.704 661.158 475.484 660.758 475.097 660.472C474.709 660.187 474.183 660.044 473.518 660.044C473.066 660.044 472.685 660.108 472.374 660.236C472.063 660.359 471.824 660.532 471.658 660.754C471.496 660.975 471.415 661.227 471.415 661.508C471.406 661.742 471.455 661.947 471.562 662.121C471.673 662.296 471.824 662.447 472.016 662.575C472.207 662.699 472.429 662.808 472.68 662.901C472.932 662.991 473.2 663.067 473.486 663.131L474.662 663.413C475.233 663.54 475.757 663.711 476.234 663.924C476.712 664.137 477.125 664.399 477.474 664.71C477.824 665.021 478.094 665.388 478.286 665.81C478.482 666.232 478.582 666.715 478.587 667.261C478.582 668.062 478.378 668.756 477.973 669.344C477.572 669.928 476.993 670.382 476.234 670.706C475.48 671.026 474.57 671.185 473.505 671.185C472.448 671.185 471.528 671.023 470.744 670.7C469.964 670.376 469.354 669.896 468.916 669.261C468.481 668.622 468.253 667.832 468.232 666.89H470.91C470.94 667.329 471.065 667.695 471.287 667.989C471.513 668.279 471.813 668.499 472.188 668.648C472.568 668.793 472.996 668.865 473.473 668.865C473.942 668.865 474.349 668.797 474.694 668.661C475.043 668.524 475.314 668.335 475.506 668.092C475.697 667.849 475.793 667.57 475.793 667.254C475.793 666.96 475.706 666.713 475.531 666.513C475.361 666.312 475.109 666.142 474.777 666.001C474.449 665.861 474.046 665.733 473.569 665.618L472.143 665.26C471.04 664.991 470.168 664.572 469.529 664.001C468.89 663.43 468.572 662.661 468.577 661.693C468.572 660.901 468.783 660.208 469.21 659.616C469.64 659.023 470.23 658.561 470.98 658.229C471.73 657.896 472.582 657.73 473.537 657.73C474.509 657.73 475.357 657.896 476.081 658.229C476.81 658.561 477.376 659.023 477.781 659.616C478.186 660.208 478.395 660.894 478.408 661.674H475.755Z" fill="white"/>
<path d="M491.999 662.492H489.199C489.148 662.13 489.044 661.808 488.886 661.527C488.728 661.241 488.526 660.999 488.279 660.798C488.031 660.598 487.746 660.445 487.422 660.338C487.102 660.232 486.755 660.178 486.38 660.178C485.703 660.178 485.112 660.347 484.61 660.683C484.107 661.016 483.717 661.501 483.44 662.141C483.163 662.776 483.024 663.547 483.024 664.455C483.024 665.388 483.163 666.172 483.44 666.807C483.721 667.442 484.113 667.921 484.616 668.245C485.119 668.569 485.7 668.731 486.361 668.731C486.732 668.731 487.075 668.682 487.39 668.584C487.71 668.486 487.993 668.343 488.24 668.156C488.487 667.964 488.692 667.732 488.854 667.459C489.02 667.186 489.135 666.875 489.199 666.526L491.999 666.538C491.926 667.139 491.745 667.719 491.455 668.277C491.17 668.831 490.784 669.327 490.299 669.766C489.817 670.201 489.242 670.546 488.573 670.802C487.908 671.053 487.156 671.179 486.316 671.179C485.149 671.179 484.105 670.915 483.184 670.386C482.268 669.858 481.544 669.093 481.011 668.092C480.482 667.09 480.218 665.878 480.218 664.455C480.218 663.027 480.487 661.812 481.024 660.811C481.561 659.81 482.289 659.047 483.21 658.523C484.13 657.994 485.166 657.73 486.316 657.73C487.075 657.73 487.778 657.837 488.426 658.05C489.078 658.263 489.655 658.574 490.158 658.983C490.661 659.388 491.07 659.884 491.385 660.472C491.705 661.06 491.909 661.734 491.999 662.492Z" fill="white"/>
<path d="M493.984 671V657.909H502.805V660.191H496.751V663.31H502.351V665.592H496.751V668.718H502.83V671H493.984Z" fill="white"/>
<path d="M515.955 657.909V671H513.564L507.869 662.761H507.773V671H505.005V657.909H507.434L513.085 666.142H513.2V657.909H515.955Z" fill="white"/>
<path d="M520.498 671H517.532L522.051 657.909H525.618L530.131 671H527.165L523.886 660.901H523.783L520.498 671ZM520.312 665.854H527.318V668.015H520.312V665.854Z" fill="white"/>
<path d="M531.706 671V657.909H536.871C537.86 657.909 538.703 658.086 539.402 658.44C540.105 658.789 540.64 659.286 541.007 659.929C541.377 660.568 541.563 661.32 541.563 662.185C541.563 663.055 541.375 663.803 541 664.429C540.625 665.051 540.082 665.528 539.37 665.861C538.663 666.193 537.806 666.359 536.801 666.359H533.343V664.135H536.353C536.882 664.135 537.321 664.062 537.67 663.918C538.019 663.773 538.279 663.555 538.45 663.266C538.624 662.976 538.712 662.616 538.712 662.185C538.712 661.751 538.624 661.384 538.45 661.086C538.279 660.788 538.017 660.562 537.664 660.408C537.314 660.251 536.873 660.172 536.34 660.172H534.474V671H531.706ZM538.776 665.043L542.029 671H538.974L535.791 665.043H538.776Z" fill="white"/>
<path d="M546.286 657.909V671H543.519V657.909H546.286Z" fill="white"/>
<path d="M560.593 664.455C560.593 665.882 560.323 667.097 559.782 668.098C559.245 669.099 558.512 669.864 557.583 670.393C556.658 670.917 555.618 671.179 554.463 671.179C553.3 671.179 552.256 670.915 551.331 670.386C550.407 669.858 549.676 669.093 549.139 668.092C548.602 667.09 548.333 665.878 548.333 664.455C548.333 663.027 548.602 661.812 549.139 660.811C549.676 659.81 550.407 659.047 551.331 658.523C552.256 657.994 553.3 657.73 554.463 657.73C555.618 657.73 556.658 657.994 557.583 658.523C558.512 659.047 559.245 659.81 559.782 660.811C560.323 661.812 560.593 663.027 560.593 664.455ZM557.787 664.455C557.787 663.53 557.649 662.75 557.372 662.115C557.099 661.48 556.713 660.999 556.215 660.67C555.716 660.342 555.132 660.178 554.463 660.178C553.794 660.178 553.211 660.342 552.712 660.67C552.213 660.999 551.826 661.48 551.549 662.115C551.276 662.75 551.14 663.53 551.14 664.455C551.14 665.379 551.276 666.159 551.549 666.794C551.826 667.429 552.213 667.911 552.712 668.239C553.211 668.567 553.794 668.731 554.463 668.731C555.132 668.731 555.716 668.567 556.215 668.239C556.713 667.911 557.099 667.429 557.372 666.794C557.649 666.159 557.787 665.379 557.787 664.455Z" fill="white"/>
</svg>
