<svg width="1016" height="872" viewBox="0 0 1016 872" fill="none" xmlns="http://www.w3.org/2000/svg">
<rect width="1016" height="872" fill="white"/>
<rect x="421" y="410" width="169" height="92" fill="#7B708C"/>
<path d="M332.5 359.5C273.804 480.754 273.948 552.19 334.5 694L284.5 719.5C221.285 575.715 220 486 292 329.5L332.5 359.5Z" fill="#D50700"/>
<path d="M718 321L670.5 349C549.66 225.518 459.294 229.941 336.5 348L296.5 321C425.682 156.882 582.995 157.935 718 321Z" fill="#D50700"/>
<path d="M721.5 330.5C787.139 483.218 783.897 569.766 719 720.5L675 691.5C727.697 564.19 729.369 491.779 675 360.5L721.5 330.5Z" fill="#D50700"/>
<path d="M370 383.5C320.496 495.462 323.55 558.917 370 673L336.42 693C280.772 563.681 277.724 489.199 336.42 362L370 383.5Z" fill="#7B708C"/>
<path d="M666.5 351.951L632.5 375C552.535 280.185 464.391 280.162 375.5 373.039L340 349.009C460.102 230.707 551.216 227.231 666.5 351.951Z" fill="#7B708C"/>
<path d="M417 416V645.5L373 670.5C326.351 559.591 325.046 497.41 373 386.5L417 416Z" fill="#FF0505"/>
<path d="M630 377L590 405H419.5L377.5 376C469.713 279.486 548.514 284.168 630 377Z" fill="#FF0909"/>
<path d="M637.679 382.5L672.32 362C726.363 499.927 724.694 571.073 672.32 690L637.679 669.5C687.347 555.381 687.64 492.522 637.679 382.5Z" fill="#7B708C"/>
<path d="M593.5 413L635 385C683.124 491.961 683.678 553.778 635 667.5L593.5 642.5V413Z" fill="#FF0909"/>
<rect x="426" y="604" width="159" height="35" fill="black"/>
<rect x="421" y="508" width="169" height="89" fill="#7B708C"/>
<path d="M461.839 627V615.364H469.68V617.392H464.3V620.165H469.277V622.193H464.3V624.972H469.703V627H461.839Z" fill="#FFFBFB"/>
<path d="M477.949 618.71C477.903 618.252 477.708 617.896 477.364 617.642C477.019 617.388 476.551 617.261 475.96 617.261C475.559 617.261 475.22 617.318 474.943 617.432C474.667 617.542 474.455 617.695 474.307 617.892C474.163 618.089 474.091 618.312 474.091 618.562C474.083 618.771 474.127 618.953 474.222 619.108C474.32 619.263 474.455 619.398 474.625 619.511C474.795 619.621 474.992 619.718 475.216 619.801C475.439 619.881 475.678 619.949 475.932 620.006L476.977 620.256C477.485 620.369 477.951 620.521 478.375 620.71C478.799 620.9 479.167 621.133 479.477 621.409C479.788 621.686 480.028 622.011 480.199 622.386C480.373 622.761 480.462 623.191 480.466 623.676C480.462 624.388 480.28 625.006 479.92 625.528C479.564 626.047 479.049 626.451 478.375 626.739C477.705 627.023 476.896 627.165 475.949 627.165C475.009 627.165 474.191 627.021 473.494 626.733C472.801 626.445 472.259 626.019 471.869 625.455C471.483 624.886 471.28 624.184 471.261 623.347H473.642C473.669 623.737 473.78 624.062 473.977 624.324C474.178 624.581 474.445 624.776 474.778 624.909C475.116 625.038 475.496 625.102 475.92 625.102C476.337 625.102 476.699 625.042 477.006 624.92C477.316 624.799 477.557 624.631 477.727 624.415C477.898 624.199 477.983 623.951 477.983 623.67C477.983 623.409 477.905 623.189 477.75 623.011C477.598 622.833 477.375 622.682 477.08 622.557C476.788 622.432 476.43 622.318 476.006 622.216L474.739 621.898C473.758 621.659 472.983 621.286 472.415 620.778C471.847 620.271 471.564 619.587 471.568 618.727C471.564 618.023 471.752 617.407 472.131 616.881C472.513 616.354 473.038 615.943 473.705 615.648C474.371 615.352 475.129 615.205 475.977 615.205C476.841 615.205 477.595 615.352 478.239 615.648C478.886 615.943 479.39 616.354 479.75 616.881C480.11 617.407 480.295 618.017 480.307 618.71H477.949Z" fill="#FFFBFB"/>
<path d="M492.388 619.437H489.899C489.854 619.116 489.761 618.83 489.621 618.58C489.481 618.326 489.301 618.11 489.081 617.932C488.861 617.754 488.607 617.617 488.32 617.523C488.036 617.428 487.727 617.381 487.393 617.381C486.791 617.381 486.267 617.53 485.82 617.83C485.373 618.125 485.026 618.557 484.78 619.125C484.534 619.689 484.41 620.375 484.41 621.182C484.41 622.011 484.534 622.708 484.78 623.273C485.03 623.837 485.378 624.263 485.825 624.551C486.272 624.839 486.789 624.983 487.376 624.983C487.706 624.983 488.011 624.939 488.291 624.852C488.575 624.765 488.827 624.638 489.047 624.472C489.267 624.301 489.448 624.095 489.592 623.852C489.74 623.61 489.842 623.333 489.899 623.023L492.388 623.034C492.323 623.568 492.162 624.083 491.905 624.58C491.651 625.072 491.308 625.513 490.876 625.903C490.448 626.29 489.937 626.597 489.342 626.824C488.751 627.047 488.083 627.159 487.337 627.159C486.299 627.159 485.371 626.924 484.553 626.455C483.738 625.985 483.094 625.305 482.621 624.415C482.151 623.525 481.916 622.447 481.916 621.182C481.916 619.913 482.155 618.833 482.632 617.943C483.109 617.053 483.757 616.375 484.575 615.909C485.393 615.439 486.314 615.205 487.337 615.205C488.011 615.205 488.636 615.299 489.212 615.489C489.791 615.678 490.304 615.955 490.751 616.318C491.198 616.678 491.562 617.119 491.842 617.642C492.126 618.165 492.308 618.763 492.388 619.437Z" fill="#FFFBFB"/>
<path d="M494.152 627V615.364H501.993V617.392H496.612V620.165H501.589V622.193H496.612V624.972H502.016V627H494.152Z" fill="#FFFBFB"/>
<path d="M513.682 615.364V627H511.557L506.494 619.676H506.409V627H503.949V615.364H506.108L511.131 622.682H511.233V615.364H513.682Z" fill="#FFFBFB"/>
<path d="M517.72 627H515.084L519.101 615.364H522.271L526.283 627H523.646L520.732 618.023H520.641L517.72 627ZM517.555 622.426H523.783V624.347H517.555V622.426Z" fill="#FFFBFB"/>
<path d="M527.683 627V615.364H532.274C533.153 615.364 533.903 615.521 534.524 615.835C535.149 616.146 535.625 616.587 535.95 617.159C536.28 617.727 536.445 618.396 536.445 619.165C536.445 619.937 536.278 620.602 535.945 621.159C535.611 621.712 535.128 622.136 534.496 622.432C533.867 622.727 533.106 622.875 532.212 622.875H529.138V620.898H531.814C532.284 620.898 532.674 620.833 532.984 620.705C533.295 620.576 533.526 620.383 533.678 620.125C533.833 619.867 533.91 619.547 533.91 619.165C533.91 618.778 533.833 618.453 533.678 618.187C533.526 617.922 533.293 617.722 532.979 617.585C532.668 617.445 532.276 617.375 531.803 617.375H530.143V627H527.683ZM533.967 621.705L536.859 627H534.143L531.314 621.705H533.967Z" fill="#FFFBFB"/>
<path d="M540.643 615.364V627H538.183V615.364H540.643Z" fill="#FFFBFB"/>
<path d="M553.361 621.182C553.361 622.451 553.12 623.53 552.639 624.42C552.162 625.311 551.51 625.991 550.685 626.46C549.863 626.926 548.938 627.159 547.912 627.159C546.878 627.159 545.95 626.924 545.128 626.455C544.306 625.985 543.656 625.305 543.179 624.415C542.702 623.525 542.463 622.447 542.463 621.182C542.463 619.913 542.702 618.833 543.179 617.943C543.656 617.053 544.306 616.375 545.128 615.909C545.95 615.439 546.878 615.205 547.912 615.205C548.938 615.205 549.863 615.439 550.685 615.909C551.51 616.375 552.162 617.053 552.639 617.943C553.12 618.833 553.361 619.913 553.361 621.182ZM550.866 621.182C550.866 620.36 550.743 619.667 550.497 619.102C550.255 618.538 549.912 618.11 549.469 617.818C549.026 617.526 548.507 617.381 547.912 617.381C547.317 617.381 546.798 617.526 546.355 617.818C545.912 618.11 545.567 618.538 545.321 619.102C545.079 619.667 544.957 620.36 544.957 621.182C544.957 622.004 545.079 622.697 545.321 623.261C545.567 623.826 545.912 624.254 546.355 624.545C546.798 624.837 547.317 624.983 547.912 624.983C548.507 624.983 549.026 624.837 549.469 624.545C549.912 624.254 550.255 623.826 550.497 623.261C550.743 622.697 550.866 622.004 550.866 621.182Z" fill="#FFFBFB"/>
</svg>
